{
	"asset":{
		"version":"2.0",
		"generator":""
	},
	"scenes":[{
		"nodes":[0]
	}],
	"nodes":[{
		"name":"Icosphere_remesh_remesh",
		"mesh":0,
		"translation":[0.0,
		0.0,
		0.0],
		"rotation":[-0.08135561645030976,
		0.16346615552902223,
		0.32714444398880007,
		0.9271658658981323],
		"scale":[1.0,
		1.0,
		1.0]
	}],
	"meshes":[{
		"name":"Icosphere_remesh_remesh",
		"primitives":[{
			"indices":0,
			"attributes":{
				"POSITION":1,
				"NORMAL":2,
				"TEXCOORD_0":3
			},
			"material":0
		}]
	}],
	"accessors":[{
		"bufferView":0,
		"type":"SCALAR",
		"componentType":5125,
		"count":72813,
		"byteOffset":0,
		"min":[0],
		"max":[72812]
	},
	{
		"bufferView":1,
		"type":"VEC3",
		"componentType":5126,
		"count":72813,
		"byteOffset":0,
		"min":[-0.0637126937508583,
		-0.061242423951625827,
		-0.04043400287628174],
		"max":[0.06277302652597428,
		0.06234179064631462,
		0.03578347712755203]
	},
	{
		"bufferView":1,
		"type":"VEC3",
		"componentType":5126,
		"count":72813,
		"byteOffset":12,
		"min":[-0.9999282956123352,
		-0.9998489022254944,
		-0.99979567527771],
		"max":[0.9998998045921326,
		0.999794602394104,
		0.9998803734779358]
	},
	{
		"bufferView":1,
		"type":"VEC2",
		"componentType":5126,
		"count":72813,
		"byteOffset":24,
		"min":[-6.038801529939519e-7,
		-0.000003036200268979883],
		"max":[0.9716246128082275,
		1.000000238418579]
	}],
	"bufferViews":[{
		"buffer":0,
		"byteOffset":0,
		"byteLength":291252,
		"target":34963
	},
	{
		"buffer":0,
		"byteOffset":291252,
		"byteLength":2330016,
		"target":34962,
		"byteStride":32
	}],
	"buffers":[{
		"uri":"data:application/octet-stream;base64,",
		"byteLength":2621268
	}],
	"materials":[{
		"pbrMetallicRoughness":{
			"baseColorFactor":[1.0,
			1.0,
			1.0,
			1.0],
			"metallicFactor":1.0,
			"roughnessFactor":1.0
		},
		"emissiveFactor":[0.0,
		0.0,
		0.0],
		"doubleSided":false,
		"alphaMode":"OPAQUE",
		"name":""
	}]
}